<svg width="32" height="32" viewBox="0 0 32 32" fill="none" xmlns="http://www.w3.org/2000/svg">
<path fill-rule="evenodd" clip-rule="evenodd" d="M16.0004 3.2C16.4211 3.2 16.7622 2.84914 16.7622 2.41633V0.783674C16.7622 0.350863 16.4211 0 16.0004 0C15.5797 0 15.2386 0.350863 15.2386 0.783674V2.41633C15.2386 2.84914 15.5797 3.2 16.0004 3.2ZM26.0311 11.5592C26.6174 12.962 26.9198 14.473 26.9199 16C26.9199 22.1937 22.0214 27.2327 16.0004 27.2327C14.3775 27.2324 12.7749 26.8608 11.3088 26.1448C10.6854 26.8386 9.80849 27.233 8.89001 27.2327H3.30327C1.61355 27.2336 0.195903 25.9219 0.0184537 24.1934C-0.158995 22.4648 0.961048 20.8774 2.61369 20.5153C2.89422 19.1764 3.92728 18.1407 5.23565 17.8866C5.13287 17.2633 5.0811 16.6322 5.08087 16C5.08087 9.8063 9.97936 4.76734 16.0004 4.76734C17.6233 4.76763 19.2259 5.13922 20.692 5.85521C21.1533 5.34239 21.7573 4.98851 22.4214 4.84186C22.7441 3.28809 24.0708 2.17207 25.6152 2.15522C27.1597 2.13838 28.5091 3.22521 28.8637 4.77159C30.6528 4.86369 32.044 6.40668 31.9989 8.24877C31.9538 10.0909 30.4888 11.5598 28.6975 11.5592H26.0311ZM23.8726 5.55102C23.8726 5.98383 23.5315 6.33469 23.1108 6.33469C22.129 6.33469 21.3332 7.15337 21.3332 8.16327C21.3332 9.17316 22.129 9.99184 23.1108 9.99184H28.6975C29.3751 9.99095 29.9932 9.59392 30.2914 8.96807C30.5896 8.34221 30.5161 7.5964 30.1017 7.04495C29.6873 6.49351 29.0042 6.23234 28.3403 6.37153C27.8625 6.48496 27.3816 6.04787 27.4278 5.54671C27.4266 4.53682 26.6299 3.7191 25.6481 3.72029C24.6664 3.72148 23.8715 4.54113 23.8726 5.55102ZM8.89001 25.6653H3.30327C2.32153 25.6653 1.52567 24.8466 1.52567 23.8367C1.52567 22.8268 2.32153 22.0082 3.30327 22.0082C3.72402 22.0082 4.0651 21.6573 4.0651 21.2245C4.06394 20.2146 4.85886 19.3949 5.8406 19.3938C6.82234 19.3926 7.61914 20.2103 7.62029 21.2202C7.57408 21.7213 8.05498 22.1585 8.53277 22.045C9.19669 21.9058 9.87978 22.167 10.2942 22.7184C10.7085 23.2699 10.7821 24.0157 10.4839 24.6415C10.1857 25.2674 9.56757 25.6644 8.89001 25.6653ZM6.80209 17.9752C7.92611 18.329 8.78384 19.2688 9.05621 20.4451C10.063 20.4967 10.9916 21.0189 11.5773 21.8629C12.163 22.7069 12.3414 23.78 12.0617 24.7763C13.2968 25.3617 14.6405 25.665 16.0004 25.6653C21.1813 25.6653 25.3963 21.3294 25.3963 16C25.3965 14.4547 25.0365 12.9318 24.3465 11.5592H23.1108C22.0736 11.5595 21.0966 11.0583 20.4729 10.2058C19.8492 9.35326 19.6514 8.24874 19.9388 7.22358C18.7038 6.63826 17.3602 6.33502 16.0004 6.33469C10.8195 6.33469 6.60452 10.6706 6.60452 16C6.60463 16.6636 6.67083 17.3255 6.80209 17.9752ZM9.39874 5.02438C9.12537 5.02376 8.87327 4.87251 8.73815 4.62804L7.94458 3.2141C7.7376 2.83961 7.86326 2.36348 8.22593 2.14809C8.58859 1.93269 9.05227 2.0588 9.26406 2.43043L10.0576 3.84437C10.1959 4.08697 10.1972 4.38718 10.061 4.63103C9.92486 4.87489 9.67212 5.025 9.39874 5.02438ZM2.8091 9.0705L4.18362 9.88683C4.54767 10.0997 5.01053 9.97048 5.21992 9.59741C5.42931 9.22435 5.30672 8.74737 4.94545 8.52951L3.57092 7.71318C3.33508 7.57096 3.04324 7.56962 2.80619 7.70969C2.56913 7.84976 2.42321 8.10975 2.42381 8.39097C2.42441 8.67218 2.57144 8.93151 2.8091 9.0705ZM2.79538 16.7837H1.20824C0.787493 16.7837 0.446411 16.4328 0.446411 16C0.446411 15.5672 0.787493 15.2163 1.20824 15.2163H2.79538C3.21613 15.2163 3.55721 15.5672 3.55721 16C3.55721 16.4328 3.21613 16.7837 2.79538 16.7837ZM16.0004 28.8C15.5797 28.8 15.2386 29.1509 15.2386 29.5837V31.2163C15.2386 31.6491 15.5797 32 16.0004 32C16.4212 32 16.7622 31.6491 16.7622 31.2163V29.5837C16.7622 29.1509 16.4212 28.8 16.0004 28.8ZM22.6021 26.9756C22.8754 26.9762 23.1275 27.1275 23.2627 27.372L24.0562 28.7859C24.2632 29.1604 24.1375 29.6365 23.7749 29.8519C23.4122 30.0673 22.9485 29.9412 22.7367 29.5696L21.9432 28.1556C21.8049 27.913 21.8036 27.6128 21.9398 27.369C22.0759 27.1251 22.3287 26.975 22.6021 26.9756ZM29.1917 22.9295L27.8172 22.1132C27.4531 21.9003 26.9903 22.0295 26.7809 22.4026C26.5715 22.7757 26.6941 23.2526 27.0553 23.4705L28.4299 24.2868C28.6657 24.429 28.9576 24.4304 29.1946 24.2903C29.4317 24.1502 29.5776 23.8903 29.577 23.609C29.5764 23.3278 29.4294 23.0685 29.1917 22.9295ZM29.2054 15.2163H30.7925C31.2133 15.2163 31.5544 15.5672 31.5544 16C31.5544 16.4328 31.2133 16.7837 30.7925 16.7837H29.2054C28.7847 16.7837 28.4436 16.4328 28.4436 16C28.4436 15.5672 28.7847 15.2163 29.2054 15.2163Z" fill="#3998E8"/>
</svg>
