<svg width="10" height="12" viewBox="0 0 10 12" fill="none" xmlns="http://www.w3.org/2000/svg">
<path fill-rule="evenodd" clip-rule="evenodd" d="M10 5C10 2.23858 7.76142 0 5 0C2.23858 0 0 2.23858 0 5C0 6.6858 0.901201 8.338 2.38702 9.90637C2.8965 10.4442 3.44087 10.9341 3.98541 11.3677C4.08086 11.4437 4.17298 11.5153 4.26124 11.5823L4.5139 11.7696L4.72265 11.916C4.8906 12.028 5.1094 12.028 5.27735 11.916L5.4861 11.7696L5.73876 11.5823C5.82702 11.5153 5.91914 11.4437 6.01459 11.3677C6.55913 10.9341 7.1035 10.4442 7.61298 9.90637C9.0988 8.338 10 6.6858 10 5ZM1 5C1 2.79086 2.79086 1 5 1C7.20914 1 9 2.79086 9 5C9 6.3767 8.2137 7.81825 6.88702 9.21863C6.41213 9.71991 5.90181 10.1792 5.39166 10.5854L5.2605 10.6887L5.17599 10.7539L4.9995 10.886L4.86534 10.7854C4.78332 10.7231 4.69746 10.6564 4.60834 10.5854C4.09819 10.1792 3.58788 9.71991 3.11298 9.21863C1.7863 7.81825 1 6.3767 1 5ZM5 3C6.10457 3 7 3.89543 7 5C7 6.10457 6.10457 7 5 7C3.89543 7 3 6.10457 3 5C3 3.89543 3.89543 3 5 3ZM3.99999 5C3.99999 4.44771 4.44771 4 4.99999 4C5.55228 4 5.99999 4.44771 5.99999 5C5.99999 5.55228 5.55228 6 4.99999 6C4.44771 6 3.99999 5.55228 3.99999 5Z" fill="#8D8D8D"/>
</svg>
